<?xml version="1.0" encoding="UTF-8"?>
<!DOCTYPE svg  PUBLIC '-//W3C//DTD SVG 1.1//EN'  'http://www.w3.org/Graphics/SVG/1.1/DTD/svg11.dtd'>
<svg width="81mm" height="107.67mm" clip-rule="evenodd" fill-rule="evenodd" image-rendering="optimizeQuality" shape-rendering="geometricPrecision" text-rendering="geometricPrecision" viewBox="0 0 81 107.671" xml:space="preserve" xmlns="http://www.w3.org/2000/svg">
 <defs>
  <style type="text/css">
   <![CDATA[
    .fil0 {fill:black}
    .fil1 {fill:white}
   ]]>
  </style>
 </defs>
   <path class="fil0" d="m8.9238 107.73c0.127-0.4572 0.254-0.9144 0.4064-1.3462 0.0762-0.2286 0.1524-0.4572 0.254-0.6858v-0.127c0.0762-0.4572 0.1778-0.9144 0.2794-1.3462 0.635-0.8128 1.4732-1.1938 1.8796-2.159 0.0254-0.3556 0.0762-0.7112 0.127-1.0668v-0.2794c0.0508-0.2286 0.1016-0.4572 0.1524-0.6604v-0.2794c0.0254-0.2286 0.0762-0.4572 0.127-0.6858 0.127-0.3302 0.254-0.635 0.4064-0.9398 0.0762-0.2286 0.1778-0.4572 0.2794-0.6604 1.1684-1.9558 2.0574-4.0132 2.6924-6.1976 0.0762-0.2286 0.1524-0.4572 0.254-0.6858 0.0762-0.2286 0.1778-0.4572 0.2794-0.6604 0.0762-0.2794 0.1524-0.5588 0.254-0.8128 0.0762-0.1778 0.1778-0.3556 0.2794-0.5334 0.0762-0.2286 0.1778-0.4572 0.2794-0.6858 0.1778-0.2794 0.3556-0.5588 0.5334-0.8128-0.1016-0.4064-0.2032-0.8128-0.2794-1.2192 0-0.4572-0.2263-0.9785 0-1.3462 0.4334-0.7042 1.2192-1.1176 1.8288-1.6764-0.1524-0.5588-0.1524-0.5588-1.5494-2.2098-0.1016-0.2286-0.2032-0.4572-0.2794-0.6858-0.6096-1.8034-1.143-3.3782-2.159-4.9784-0.1016-0.2286-0.1778-0.4572-0.254-0.6858-0.381-0.635-0.7366-1.27-1.0922-1.8796-0.1016-0.2286-0.1778-0.4572-0.254-0.6858-3.6576-3.3274-3.6576-3.3274-4.0386-4.0386-0.1016-0.2794-0.2032-0.5588-0.2794-0.8128-0.1778-0.0508-0.3556-0.1016-0.5334-0.127-0.1778-0.0508-0.3556-0.1016-0.5334-0.127-1.0922-0.3302-2.1844-0.635-3.2512-0.9398-0.6285-0.1795-1.2524-0.3744-1.8796-0.5588h-0.5334c-0.5842-0.3302-1.0841-0.4759-1.6209-0.8573-0.2856-0.2029-0.3158-0.6624-0.2017-1.0223 1.5028-3.0556 3.1688-5.9436 4.3626-9.1694 0.0508-0.2286 0.1016-0.4572 0.1524-0.6604 0.1778-0.508 0.3556-1.016 0.5334-1.4986 0.1509-0.5534 0.2931-1.0335 0.4064-1.6002 0.0634-0.4444 0.1909-0.9036 0.2794-1.3462 0.0762-0.381 0.1524-0.7366 0.254-1.0922 0.0348-0.3834 0.0641-0.7438 0.2794-1.0668 0.0254-0.3302 0.0762-0.635 0.127-0.9398 0-0.6091-0.0411-1.1642 0.127-1.7526 0.0508-0.3302 0.1016-0.635 0.1524-0.9398v-1.7526c0.0762-0.5842 0.1524-1.1684 0.254-1.7526v-2.5654c0.0762-0.3302 0.1778-0.635 0.2794-0.9398v-1.0922c0.0254-0.762 0.0762-1.524 0.127-2.286 0.4064-1.6002 1.2192-3.429 2.032-4.8514 0.0762-0.2286 0.1524-0.4572 0.254-0.6604 1.0414-1.778 1.4986-4.0386 3.5052-5.1308 0.1778-0.0508 0.3556-0.1016 0.5588-0.127l0.5334-0.1524c0.7112-0.0712 1.387-0.089 2.159 0 0.0762 0.0508 0.1524 0.1016 0.254 0.1524 0.1778 0.0254 0.3556 0.0762 0.5588 0.127 0.508-0.1016 0.508-0.1016 0.6604-0.4064v-0.8128c0-1.3462 0.8636-1.7526 2.032-2.159 0.1778-0.1016 0.1834-0.1203 0.3612-0.1965 0.0762-0.0508 0.3907-0.1975 0.5032-0.2099 0.3533-0.0389 0.6162 3e-3 1.0152 0 0.1848-0.0014 0.3136-0.0154 0.4914-0.0408 0.0762-0.0508 0.2526-0.1345 0.3214-0.2132 0.1272-0.1454 0.1524-0.3556 0.254-0.5334 0.0762-0.2032 0.1778-0.381 0.2794-0.5588 0.0762-0.2286 0.1778-0.4572 0.2794-0.6604 0.0762-0.2794 0.1524-0.5588 0.254-0.8128 0.127-0.2286 0.254-0.4572 0.4064-0.6858 0.8128-0.9398 0.388-1.1168 3.3844-3.0988 0.1778-0.0508 0.6034-0.1016 0.8066-0.127 0.3556-0.0508 0.7112-0.1016 1.0668-0.127 0.3556 0.0254 0.7112 0.0762 1.0668 0.127h0.5588c0.0762 0.0254 0.1524 0.0762 0.254 0.127 0.254 0.0508 0.5334 0.1016 0.8128 0.1524 0.1778 0.0762 0.3556 0.1524 0.5334 0.254 0.1778 0.0762 0.3556 0.1778 0.5588 0.2794 0.7874 0.5334 0.8582 0.3918 3.5052 3.399 0.0762 0.2032 0.1524 0.538 0.254 0.7666v0.2794c-0.0508 0.4064 0.0046 0.8128-0.0208 1.2192-0.0508 0.254-0.1724 0.5334-0.1978 0.8128-0.1016 0.1778-0.2386 0.3556-0.3148 0.5334-0.2794 0.8382-0.5588 1.7018-0.8128 2.5654-0.1016 0.2032-0.2032 0.4318-0.2794 0.6604l0.1524 0.6858c0.0254 0.127 0.0194 0.273 0.0702 0.4254 0.0946 0.5524 0.2268 1.1044 0.2268 1.6378-0.1016 0.0762-0.3354 0.1972-0.4494 0.2228h-0.5334c-0.1016 0.1778-0.1778 0.3556-0.254 0.5334v0.5334c-0.2794 0.254-0.5214 0.5728-0.8128 0.8128-0.1493 0.1229-0.3556 0.1778-0.5334 0.2794-0.381 0.4318-0.605 1.033-1.0922 1.3462-0.2991 0.1922-0.7112 0-1.0668 0-0.9144-0.3302-1.8034-0.635-2.6924-0.9398-0.5588-0.0254-0.5588-0.0254-0.5588 0.127-0.2794 0.1778-0.4933 0.4354-0.7874 0.5334-0.265 0.0883-0.3546 0.0054-0.2794 0.5334 0.0107 0.0752 0.2053-0.0694 0.2794 0 0.7604 0.7128 1.4224 1.524 2.1336 2.3114h0.8128c0.1778-0.1016 0.3556-0.2032 0.5334-0.2794 0.7112-0.635 1.4224-1.27 2.159-1.8796 0.1778-0.0508 0.3556-0.1016 0.5588-0.1524 0.1778-0.0508 0.3556-0.1016 0.5334-0.127h0.254c0.1778-0.0508 0.3556-0.1016 0.5588-0.127 0.1778 0.0254 0.3556 0.0762 0.5334 0.127 0.254 0.0254 0.5334 0.0762 0.8128 0.127 0.9398 0.635 0.9398 0.635 1.3462 1.3462 0.0762 0.2286 0.1524 0.4572 0.254 0.6858v0.9398l0.1524 0.6858c-0.2032 0.889-0.1511 1.2525-0.9398 1.7526-0.3217 0.204-0.7366 0-1.0922 0-0.1016-0.2286-0.2032-0.4318-0.2794-0.635-1.149 0.2608-2.7751 0.9459-3.1745 2.0892-0.0508 0.1778 0.1286 0.4471 0.1032 0.6249-0.8322 0.4762-1.1508 0.5521-1.3286 0.9077-0.1016 0.4318-0.0959 0.7216-0.1721 1.1788 0.0762 0.254 0.2292 0.5198 0.2794 0.8128 0.0529 0.3086 0 0.6266 0 0.9398v1.6256c0.0762 0.2032 0.1524 0.4318 0.254 0.6604 0.1778 0.1778 0.3556 0.3556 0.5588 0.5334h0.5334c1.1047-0.6926 1.2738-0.8509 2.159-2.1336 0.2276-0.3297 0.6861-0.9652 0-0.9652-0.0508-0.2286-0.1016-0.4572-0.1524-0.6604-0.0508-0.3302-0.1016-0.635-0.127-0.9398 0.0254-0.381 0.0762-0.7366 0.127-1.0922v-0.127c0.0508-0.3556-0.0766-0.7901 0.1524-1.0668 0.4312-0.521 0.911-0.3171 1.2555-0.2069s-0.044 0.2681 0.1209 0.3339 0.6619 0.1126 0.7161 0.0061-0.0327-0.1863 0.0665-0.2855 0.3556-0.1778 0.5334-0.254h0.5334c0.1778 0.0254 0.382 0.021 0.5334 0.127 0.1213 0.0849 0.1255 0.3075 0.2794 0.4064 0.2229 0.1433 0.5469 0.1466 0.8128 0.2794 0.0962 0.0481 0.1965 0.1225 0.254 0.254 0.1258 0.2878 0.1334 0.6268 0.2794 0.9398 0.0387 0.0829 0.189 0.0595 0.254 0.1524 0.1243 0.1776 0.1676 0.4367 0.2794 0.6604 0.0662 0.1324 0.2481 0.2261 0.2794 0.4064 0.0738 0.4254 0 0.889 0 1.3462-0.1016 0.2286-0.2032 0.4572-0.2794 0.6858-0.1524 0.2032-0.2794 0.4318-0.4064 0.6604 0.0254 0.254 0.0762 0.5334 0.127 0.8128v0.8128c0 0.2717-0.2491 0.5754-0.381 0.8128 0.1023 0.3069 0.127 0.4434 0.127 0.7874-0.1778 1.3462-0.1016 1.8288-1.0922 2.7178-0.3556 0.0762-0.7112 0.1524-1.0668 0.254-1.8034 1.0922-3.2766 2.3876-5.1308 3.3782h-0.7874c-0.8636-0.0762-1.143-0.0762-1.4986 0.8128v1.0668c-0.1016 0.254-0.1778 0.5334-0.254 0.8128-0.0508 1.524 0.0114 3.056-0.1524 4.572-0.0415 0.3846-0.2794 0.7112-0.4064 1.0922-0.0756 0.4538-0.1797 0.9002-0.254 1.3462-0.0508 0.3048-0.1016 0.9496-0.1524 1.2798-0.085 0.9315 0 1.438 0 2.3524 0.0762 0.2286 0.1778 0.7122 0.2794 0.9408 0.9906 1.2954 1.9812 2.3358 2.9718 3.6312 0.0762 0.1778 0.1524 0.3556 0.254 0.5588 2.5654 3.3528 2.5654 3.3528 4.5974 6.4516 0.0762 0.3048 0.2374 0.5671 0.339 0.8973 0 0.3146 0.085 0.6431 0.085 0.9408 0 0.889-0.17 1.5655-0.17 2.4799 0 0.4063 0.0574 0.817 0 1.2192-0.0454 0.318-0.0928 0.5671-0.169 0.8973 0 0.6096-0.085 1.2871-0.085 1.9221 0 0.6637 0.0167 1.3767 0 2.032-0.0066 0.2588-0.1219 0.5305-0.1524 0.8128-0.0711 0.6585-0.1016 1.3208-0.127 2.0066v1.2192c-0.1016 0.3048-0.1778 0.831-0.254 1.1612 0 0.7112 0.0953 1.2073 0 1.9376-0.0499 0.3819-0.1628 0.8543-0.2056 1.2398 0 0.5334-0.0738 0.9192-0.0738 1.4526-0.0508 0.3048-0.1016 0.6096-0.127 0.9398-0.0894 0.5368-0.2195 1.0863-0.2794 1.6256-0.1057 0.4229-0.2794 0.9096-0.2794 1.3462-0.0508 0.2286-0.1016 0.4572-0.127 0.6858-0.1305 0.5221-0.1976 1.0685-0.2794 1.6002-0.0645 0.6775-0.127 1.3512-0.127 2.032-0.0508 0.4064-0.1016 0.8128-0.127 1.2192-0.1016 0.2032-0.2032 0.4318-0.2794 0.6604v0.8128h-10.922c0.127-0.4572 0.254-0.9144 0.4064-1.3462 0.0762-0.1778 0.1778-0.3556 0.2794-0.5334 0.0762-0.3302 0.1778-0.635 0.2794-0.9398v-0.5588c0.6096-0.7366 1.143-1.1684 1.0668-2.159-0.1016-0.2286-0.2032-0.4572-0.2794-0.6604v-0.127c-0.0508-0.2286-0.1016-0.4572-0.127-0.6858v-0.127c-0.0508-0.381-0.1016-0.7366-0.127-1.0922 0.0254-0.1524 0.0762-0.2794 0.127-0.4064 0.0254-0.2286 0.0762-0.4572 0.127-0.6604v-0.127c0.0508-0.7366 0.1016-1.4478 0.1524-2.159v-0.5588c0.0254-0.3302 0.0762-0.635 0.127-0.9398v-0.6604c0.0762-0.2794 0.1778-0.5588 0.2794-0.8128-0.1016-0.2794-0.2032-0.5588-0.2794-0.8128-0.8636 0.1524-1.778 2.7178-2.159 3.5052-0.1016 0.2286-0.1778 0.4572-0.254 0.6858-0.1016 0.1778-0.2032 0.3556-0.2794 0.5334-1.2954 2.5146-3.2258 7.1882-5.6642 8.4836-0.1778-0.0508-0.3556-0.1016-0.5334-0.127 0.1778 1.27 0.1778 1.27 0.4064 1.1938 0.0254 0.0508 0.0762 0.1016 0.127 0.1524 0.0254 0.2032 0.0762 0.4318 0.127 0.6604v0.2794h-9.144z"/>
   <path class="fil0" d="m38.566 107.73c-0.0762-0.3302-0.0762-0.3302-1.8288-1.2954-0.6858-1.651 3.1242-7.6708 3.9878-9.2202 0.0254-0.2286 0.0762-0.4572 0.127-0.6604 0.3302-1.4986 1.1176-2.8956 1.3462-4.4704 0.0254-0.2794 0.0762-0.5334 0.127-0.7874 0.7112-1.8034 0.9288-3.2582 1.7018-5.0038 1.2143-2.7421 2.6028-5.3067 3.4453-8.2785 0.0508-0.3302 0.2492-1.1147 0.3-1.4195 1.1478-2.7384 1.7919-4.9324 3.0619-7.5486 0.0254-0.2286 0.0762-0.4572 0.127-0.6604-0.635-1.6256-0.127-1.6256 0.2794-3.2512 0.0254-0.2286 0.0762-0.4572 0.127-0.6604 0.2032-0.6858 0.4318-1.3716 0.6604-2.032v-1.0668c0-0.5334 0-0.5334-0.381-1.3462v-1.6256c0.0254-0.2794 0.0762-0.5588 0.127-0.8128-0.0508-0.3556-0.1016-0.7112-0.127-1.0668v-5.7912c-0.1445-0.3251-0.2467-0.5853-0.2794-0.9398-0.0344-0.3726-0.127-0.7184-0.127-1.0922 0.0254-0.2286 0.1079-0.452 0.127-0.6604 0.0318-0.3473 0.0622-0.6397 0-1.0922s-0.2032-1.0922-0.2794-1.6256c-0.0508-0.2286-0.127-0.3545-0.127-0.6604s0.0969-0.8109 0.127-1.2192c0.0205-0.2785 0-0.5588 0-0.8128v-0.9398c0.0508-0.2794 0.0453-0.577 0.1524-0.8128 0.2776-0.6109 0.5334-1.7526 0.5334-2.413 0.0254-0.3302 0.0762-0.635 0.127-0.9398 0.1008-0.6053 0.127-1.1209 0.127-1.7526 0.0508-0.3302 0.1016-0.635 0.1524-0.9398v-0.5588c0.0714-0.4287 0.127-0.739 0.127-1.1938v-0.5588c0.0267-0.8012 0.127-1.6138 0.127-2.413 0.0762 0 0.3439-0.587 0-0.8128-0.0508-0.2794-0.1016-0.5588-0.127-0.8128v-2.159c-0.0508-0.1778-0.1016-0.3556-0.127-0.5334-0.0508-0.2794-0.1016-0.5588-0.1524-0.8128-0.0508-0.1524-0.1016-0.2794-0.127-0.4064v-1.7526c-0.0508-0.2794-0.1016-0.5334-0.127-0.7874 0-0.3358 0.0539-0.636 0.127-0.9652v-0.5334c-0.0508-0.4064-0.1016-0.8128-0.127-1.2192 0.0254-0.508 0.0762-0.9906 0.127-1.4732 0.0254-0.4064 0.0762-0.8128 0.127-1.2192 0.3556-1.4224 1.2681-2.4662 0.8128-4.0386 0.0589-0.5301 0.1524-1.0668 0.1524-1.6002 0.0254-0.2794 0.0762-0.5588 0.127-0.8128 0.127-0.3302 0.2262-0.5981 0.3786-0.9029 0.0811-0.2285 0.1833-0.5678 0.2286-0.7965 0.2794-1.0668 0.6562-1.6402 0.9356-2.7324 0.0254-0.2794 0.2418-0.7244 0.2926-0.9784 0.3048-0.8128 0.5268-1.6256 0.857-2.413 0.0254-0.3302 0.0762-0.635 0.127-0.9398 0.0508-0.4572 0.1016-0.9144 0.1524-1.3462h4.572v1.2192c-0.0508 0.254-0.1016 0.508-0.127 0.7874-0.7874 1.9304-1.2192 3.9116-1.4986 5.9436-0.0508 0.2032-0.1016 0.4318-0.127 0.6604v4.445c-0.1016 0.4111-0.2032 0.7112-0.2794 1.0922-0.0508 0.6096-0.1016 1.2446-0.127 1.8796-0.0508 0.5842-0.1016 1.1684-0.127 1.7526v1.7526c0 0.4454-0.1524 1.0307-0.1524 1.6256 0.0187 0.0626 0 0.8128-0.127 0.8128 0 0.4064 0 0.8128 0.0254 1.2192 0.3556 0.3048 0.8747 0.675 1.2303 0.9798 0.0254-0.2794 0.3051-0.4353 0.2905-0.722-0.247-0.4534-0.4286-1.2992-0.454-1.8834 0.0254-0.2286 0.0762-0.4572 0.127-0.6858v-0.254c-0.0508-0.2794-0.1016-0.5588-0.127-0.8128-0.1016-0.8636-0.2032-1.7272-0.2794-2.5654v-0.8128c0.4826-1.905 1.8034-3.2766 3.7846-3.7592l0.5334-0.1524h0.8128c0.1778-0.0508 0.3556-0.1016 0.5334-0.127 3.1496 0.0762 5.8674 0.9906 6.604 4.445 0.0254 0.3556 0.1089 1.0055 0.1597 1.3611 0.7001 2.5511 1.3389 4.3031 2.4057 6.5891 0.0254 0.2286 0.0762 0.4572 0.127 0.6858-0.4607 1.3173-1.016 1.9669-2.032 2.6924h-0.7874c-0.2794 0.0508-0.5588 0.1016-0.8382 0.1778-0.1016 0.254-0.1778 0.508-0.254 0.762 1.8542 0.1524 1.8034 0.4572 2.5654 2.0066 3.4544 3.0988 5.0076 5.7293 7.1374 10.044 0 0.1778 0.0654 0.5518 0.0654 0.755 0 0.3556-0.0654 0.5804-0.0654 0.936 0.0254 0.2032 0.0762 0.4318 0.127 0.6604 0.0762 0.3556 0.1778 0.7112 0.2794 1.0922v1.0668c-0.0508 0.3556-0.0689 0.6785-0.0943 1.0595 0.0619 0.3556-0.1051 0.8093-0.3121 1.0995-2.2098 1.4732-4.6228 2.1844-6.8834 3.5052l-0.0762 0.4572c0.5842 0.635 1.1115 0.6788 1.7383 1.2665 0.3519 0.3298-0.0981 0.9325-0.0981 1.4405 0 0.4064-0.0654 0.7474-0.0654 1.1538-0.0401 0.2594-0.1416 0.4984-0.2794 0.6858-0.2129 0.072-0.2251-0.0776-0.2867 0.4045 0.435 0.2477 0.6211 0.8824 0.6931 1.3227 0.0377 0.2309-0.1016 0.5189-0.127 0.7475v0.6241c0 1.4224 0.9398 2.8448 1.0668 4.445 0.0508 0.381 0.1016 0.7874 0.1524 1.1938v0.2794c-0.0508 0.254-0.1016 0.5334-0.1524 0.8128 0.0762 0.254 0.2182 0.5219 0.2794 0.8128 0.0418 0.1988 0.0553 0.4387 0 0.6604-0.0496 0.1985-0.2032 0.3556-0.2794 0.5334 0 0.1778-0.0103 0.3556-0.0103 0.5588 0 0.1778-0.0102 0.3659-0.0102 0.5437s0.0205 0.3453 0.0205 0.5231l0.1524 0.6858v0.5334l-0.1524 1.7526v4.1656c0.0508 0.4318 0.1016 0.889 0.1524 1.3462 0.0254 1.2192 0.0762 2.4384 0.127 3.6576 0.0254 0.381 0.0762 0.7874 0.127 1.1938v1.0922c-0.1016 0.5334-0.1778 1.0668-0.254 1.6002-0.0508 0.254-0.1016 0.5334-0.1524 0.8128v2.159c0 0.127-0.0103 0.2951-0.0103 0.4475-0.0508 0.2286-0.081 0.4161-0.1064 0.6447 0 0.1778-0.0103 0.3556-0.0103 0.5334v3.7592c0.0254 0.4826 0.0762 0.9906 0.127 1.4986 0.0508 0.2032 0.1016 0.4318 0.1524 0.6604 0.0254 0.127 0.0454 0.254 0.0962 0.4064 0.0254 0.2286 0.107 0.4572 0.1578 0.6858 0.4572 2.0828 1.0922 3.5052 1.2192 4.445 0.0254 0.3048 0.0762 0.6096 0.127 0.9398 0.127 0.5842 0.288 1.1606 0.4064 1.7526 0.0348 0.1743 0 0.3556 0 0.5334 0 0.2286 7e-3 0.2934 0.0307 0.5726 0.0216 0.2536 0.0637 0.6379-0.0307 0.9006-0.143 0.3975-0.4469 0.7112-0.6604 1.0922h-7.0104c-0.1016-0.4572-0.2032-0.9144-0.2794-1.3462-0.0508-0.2794-0.1016-0.5588-0.127-0.8128-0.2794-0.2286-0.7412-0.3205-0.8025-0.6398-0.1305-0.6802-0.0103-1.4684-0.0103-2.1796v-0.8128c-0.0508-0.3302-0.1016-0.635-0.127-0.9398v-0.5588c0.0254-0.6858 0.0762-1.3462 0.127-2.0066-0.0508-0.3302-0.1016-0.635-0.127-0.9398v-0.2794c0.0254-0.3302 0.1152-0.6117 0.086-0.9192-0.0236-0.249-0.1622-0.4778-0.2384-0.7064v-3.2258c0-0.1778-0.07-0.37 0-0.5334 0.03-0.07 0.1008-0.0949 0.1153-0.1954 0.0458-0.3154 0.0098-0.2223-0.0146-0.4907-0.0092-0.101-0.0743-0.1823-0.1007-0.2537-0.246-0.6643-0.3556-1.3716-0.5334-2.032-0.0508-0.2794-0.1016-0.5588-0.127-0.8128 0-1.3462-0.7874-2.3622-0.4064-4.0386 0.0254-0.4572 0.0762-0.9144 0.127-1.3462-0.254-1.6256-0.5334-1.8796-0.8128-3.5052 0.0508-0.2794 0.1016-0.5588 0.1524-0.8128-0.0508-0.635-0.1016-1.27-0.1524-1.8796 0-0.5334-0.254-0.8128-0.381-2.159l-0.1524-1.0668c-0.254-1.6256-0.4353-2.0031-0.9906-3.429-2.1593-0.7693-3.4544 2.3622-4.3942 3.556-7.2898 12.395-7.2898 12.395-10.516 17.374-1.3716 3.7338-2.8194 7.9248-3.5052 11.862-0.0508 0.2286-0.1016 0.4572-0.127 0.6858-0.2286 1.2192-0.5334 2.8194-1.3462 3.7592-0.9071-0.2014-1.3629 0.0872-2.159-0.254-0.1778 0.0762-0.3556 0.1524-0.5334 0.254-0.0508 0.2286-0.014 0.4433-0.0648 0.6719-1.27 0-2.6022 0.0139-3.8468 0.0139z"/>
   <!-- <path class="fil1" d="m68.08 45.727c-0.2341-0.3407 0.0721-0.844 0.254-1.1938 1.1439-2.1998 1.2192-2.159 2.286-3.3782 0.6604 0.381 1.388 2.2506 0.8382 2.7432-0.7361 0.6593-0.8545 0.6662-1.4732 1.4224-0.1456 0.178-0.4487-0.1609-0.635-0.0762-0.1551 0.0704-0.1524 0.3048-0.2032 0.4826-0.3556 0-0.8654 0.2929-1.0668 0z"/>
   <path class="fil1" d="m22.306 20.164c-0.2268-0.2761-0.0918-0.302-0.0595-0.419 0.0363-0.1315 0.0748-0.2143 0.1855-0.2757 0.1312-0.0729 0.2556-0.0763 0.4091-0.0974 0.125-0.0172 0.2759 0.105 0.3103 0.192 0.0654 0.165 0.0162 0.4107-0.0798 0.5601-0.0617 0.096-0.2594 0.0862-0.3737 0.0862s-0.2776-0.0462-0.3919-0.0462z"/> -->
</svg>
