<svg xmlns="http://www.w3.org/2000/svg" viewBox="0 0 64 80" x="0px" y="0px"><g><path d="M61,17H47.667L42.923,5.615A1,1,0,0,0,42,5H25a1,1,0,0,0-1,1v4a1,1,0,0,0,1,1H38.307l2.25,6H33a1,1,0,0,0-1,1v6a1,1,0,0,0,1,1h1.057L36,58.059A1,1,0,0,0,37,59H57a1,1,0,0,0,1-.941L59.943,25H61a1,1,0,0,0,1-1V18A1,1,0,0,0,61,17ZM39.937,9.649A1,1,0,0,0,39,9H26V7H41.333L45.5,17H42.693ZM56.645,47H52.274a7.966,7.966,0,0,0,0-12h5.077ZM53,41a6,6,0,1,1-6-6A6.006,6.006,0,0,1,53,41ZM39,41a7.976,7.976,0,0,0,2.726,6H37.355l-.706-12h5.077A7.976,7.976,0,0,0,39,41ZM37.943,57l-.47-8H56.527l-.47,8ZM57.469,33H36.531l-.47-8H57.939ZM60,23H34V19H60Z"/><path d="M53,53H50a1,1,0,0,0,0,2h3a1,1,0,0,0,0-2Z"/><path d="M46,53H45a1,1,0,0,0,0,2h1a1,1,0,0,0,0-2Z"/><path d="M5,59H31a3,3,0,0,0,3-3V52a2.994,2.994,0,0,0-1.4-2.529,2.9,2.9,0,0,0,0-2.942A2.994,2.994,0,0,0,34,44c0-5.407-3.74-11-10-11H13C5.778,33,2,38.534,2,44a2.994,2.994,0,0,0,1.4,2.529,2.9,2.9,0,0,0,0,2.942A2.994,2.994,0,0,0,2,52v4A3,3,0,0,0,5,59Zm27-3a1,1,0,0,1-1,1H5a1,1,0,0,1-1-1V52a1,1,0,0,1,1-1h7.869l14.873,3.966a1,1,0,0,0,1.153-.519L30.618,51H31a1,1,0,0,1,1,1ZM5,48a1,1,0,0,1,1-1H30a1,1,0,0,1,0,2H6A1,1,0,0,1,5,48Zm23.382,3-.912,1.824L20.631,51ZM13,35H24c5.518,0,8,5.263,8,9a1,1,0,0,1-1,1H5a1,1,0,0,1-1-1C4,40.382,6.4,35,13,35Z"/><path d="M13,39h1a1,1,0,0,0,0-2H13a1,1,0,0,0,0,2Z"/><path d="M9,43h1a1,1,0,0,0,0-2H9a1,1,0,0,0,0,2Z"/><path d="M14,42a1,1,0,0,0,1,1h1a1,1,0,0,0,0-2H15A1,1,0,0,0,14,42Z"/><path d="M21,43h1a1,1,0,0,0,0-2H21a1,1,0,0,0,0,2Z"/><path d="M27,43h1a1,1,0,0,0,0-2H27a1,1,0,0,0,0,2Z"/><path d="M18,39h1a1,1,0,0,0,0-2H18a1,1,0,0,0,0,2Z"/><path d="M23,39h1a1,1,0,0,0,0-2H23a1,1,0,0,0,0,2Z"/></g></svg>