<svg height='100px' width='100px'  fill="#000000" xmlns="http://www.w3.org/2000/svg" xmlns:xlink="http://www.w3.org/1999/xlink" version="1.1" x="0px" y="0px" viewBox="0 0 100 100" enable-background="new 0 0 100 100" xml:space="preserve"><path fill="#000000" d="M49,52c2.081,0,3.805-0.812,5.124-2.41l-2.932-2.419C50.606,47.882,49.93,48.2,49,48.2  c-0.925,0-1.599-0.313-2.184-1.017l-2.921,2.432C45.213,51.197,46.931,52,49,52z M50.767,44.309H47.1v0.832h3.667V44.309z   M74.141,66.101c-0.753-0.108-1.597-0.248-2.481-0.409l-1.291-0.255c-0.232-0.046-0.419-0.096-0.616-0.146  c-0.224-0.06-0.458-0.12-0.75-0.184l-3.335-0.758l0.001,0.003c-2.845-0.777-5.342-1.713-6.324-2.695  c-0.686-0.686-1.151-2.459-1.426-4.756H69.9V29.149l-0.045-0.001C69.382,18.572,60.223,10.1,49,10.1  c-10.834,0-19.765,7.891-20.796,17.952L28.1,28.049V56.9h11.988c-0.26,2.245-0.715,4.038-1.432,4.756  c-1.135,1.135-3.782,2.127-6.71,2.9l0.013-0.037l-3.261,0.683c-0.405,0.084-0.623,0.164-0.829,0.241  c-0.058,0.021-0.111,0.043-0.214,0.062l-1.126,0.207c-0.951,0.16-1.852,0.292-2.647,0.388C17.375,66.164,12.1,71.478,12.1,78v7  c0,2.645,3.294,4.214,11.372,5.415c0.838,0.125,1.717,0.241,2.628,0.351v0.012l1.7,0.18c0.121,0.013,0.25,0.023,0.371,0.036  c0.415,0.043,0.836,0.083,1.262,0.123c0.457,0.042,0.921,0.083,1.39,0.122c0.401,0.034,0.8,0.067,1.21,0.099  c0.625,0.048,1.265,0.091,1.909,0.132c0.273,0.018,0.539,0.038,0.816,0.055c0.923,0.056,1.865,0.104,2.82,0.147  c0.301,0.014,0.608,0.024,0.912,0.037c0.705,0.028,1.415,0.055,2.134,0.077c0.349,0.011,0.7,0.021,1.052,0.03  c0.724,0.019,1.454,0.034,2.19,0.047c0.319,0.005,0.635,0.012,0.957,0.016C45.874,91.892,46.931,91.9,48,91.9  c1.067,0,2.133-0.008,3.195-0.022c0.553-0.007,1.096-0.019,1.644-0.029c0.468-0.009,0.936-0.018,1.401-0.029  c0.715-0.018,1.421-0.04,2.125-0.063c0.258-0.009,0.514-0.018,0.77-0.027c0.814-0.03,1.618-0.064,2.415-0.103  c0.098-0.005,0.194-0.01,0.292-0.015c3.525-0.174,6.86-0.424,9.91-0.747c0.148-0.016,0.306-0.029,0.453-0.045l0.273-0.029  c0.142-0.016,0.288-0.03,0.429-0.047l0.993-0.107v-0.017c0.539-0.066,1.091-0.13,1.607-0.201C83.793,89.005,85.9,87.229,85.9,85v-7  C85.9,71.485,80.639,66.177,74.141,66.101z M26.1,86.924c-5.811-0.736-9.221-1.67-10.2-2.357V78c0-4.467,3.634-8.1,8.1-8.1  l0.222-0.014c0.264-0.031,0.94-0.114,1.878-0.257V86.924z M35.136,35.517C39.352,36.42,44.083,36.9,49,36.9  c4.917,0,9.647-0.479,13.863-1.383C61.642,45.055,55.753,55.1,49,55.1C42.247,55.1,36.357,45.055,35.136,35.517z M49,86.1  c-9.009,0-18.1-3.277-18.1-10.6c0-0.273-0.014-0.801-0.033-1.469c-0.032-1.153-0.104-3.744-0.062-5.279  c3.882-0.868,8.409-2.279,10.539-4.408c1.358-1.359,2.092-3.917,2.476-6.755C45.452,58.427,47.188,58.9,49,58.9  s3.548-0.474,5.182-1.312c0.383,2.838,1.116,5.396,2.475,6.755c1.936,1.936,6.357,3.34,10.267,4.257  c0.091,1.154,0.177,3.299,0.177,6.899C67.1,82.822,58.01,86.1,49,86.1z M82.1,84.505c-1.12,0.736-4.691,1.597-10.199,2.292V69.595  c0.809,0.135,1.457,0.232,1.833,0.286L74,69.9c4.467,0,8.1,3.633,8.1,8.1V84.505z"></path></svg>