<svg xmlns="http://www.w3.org/2000/svg" xmlns:xlink="http://www.w3.org/1999/xlink" version="1.1" x="0px" y="0px" viewBox="950 1450 100 125" enable-background="new 950 1450 100 100" xml:space="preserve"><g><g><g><path d="M1007.8,1501.3c0,0.8,0.9,1.2,2.1,1.2s2.1-0.4,2.1-1.2c0-0.8-0.9-1.5-2.1-1.5S1007.8,1500.4,1007.8,1501.3z"/></g></g></g><g><g><g><path d="M990.6,1501.3c0,0.8-0.9,1.2-2.1,1.2s-2.1-0.4-2.1-1.2c0-0.8,0.9-1.5,2.1-1.5S990.6,1500.4,990.6,1501.3z"/></g></g></g><path d="M1028.4,1474.6c-2.8-5.2-7.9-8.6-13-8.6c-1.6,0-3.2,0.4-4.6,1.1c-3.1-2.2-8.3-5.1-14.4-5.1h0c-2.6,0-5.1,0.5-7.4,1.5  c-6.6,2.8-9.9,6.1-12.2,8.4c-1.1,1.1-1.9,1.9-2.7,2.4c-3.8,2.2-5.4,10.2-4.6,16.2c0.5,4,1.9,6.9,4,8.4c-2,1.1-3,3.5-3,7.3  c0,5.1,1.8,7.8,5.4,7.9l0.3,3.6c0,4.4,3.6,8.2,7.2,9.7c0.9,0.4,2.2,1.1,2.7,2.3c0.1,0.3,0.2,0.7,0.3,1.2c0.7,3.6,2.3,7,13,7  c10.8,0,12.3-3.3,13-7.1c0.1-0.5,0.2-0.9,0.3-1.2c0.4-0.9,1.3-1.6,2.7-2.2c3.6-1.5,7.2-5.3,7.2-9.7l0.2-3.6c3.5-0.2,5.3-2.8,5.3-7.9  c0-1.3,0-4.7-2.1-6.6C1031.3,1490.7,1032.2,1481.7,1028.4,1474.6z M1020.4,1501.7l-0.8,16c0,3.1-2.8,5.9-5.4,7  c-2.2,0.9-3.6,2.2-4.3,3.9c-0.2,0.6-0.4,1.2-0.5,1.8c-0.4,2.3-0.9,4.6-10.1,4.6c-9.1,0-9.6-2.5-10-4.6c-0.1-0.6-0.3-1.3-0.5-1.9  c-1-2.1-2.9-3.2-4.3-3.8c-2.6-1.1-5.4-3.9-5.4-7.1l-1.9-23.5c0-0.5,0.1-11.7,9.6-11.7c0.9,0,1.8,0.1,2.8,0.3  c0.6,0.1,1.2,0.2,1.7,0.2c4.1,0,6.6-3,8.9-5.9c2.4-2.9,4.6-5.7,8.6-5.7c0.7,0,1.5,0.1,2.3,0.3c7.2,1.6,10,13,10.3,14.4l-0.2,3.3  l-1.2,5.3L1020.4,1501.7z M1022.6,1499l-0.3-4.2l1.1-5l0.2-3.9l0-0.2c-0.1-0.6-2.7-12.8-10.6-15.9c-0.1,0-0.1-0.1-0.3-0.3  c3.2-1.2,7.4,0.1,10.5,3.3c4.8,5,7,14.3-0.5,26.2C1022.8,1499,1022.7,1499,1022.6,1499z M976.2,1487.2c-1.4,3.4-1.4,6.8-1.4,7  l0.2,2.1c-1.3-1.1-2.2-3.3-2.5-6.2c-0.7-5.5,0.9-11.9,3.2-13.3c1.2-0.7,2.2-1.7,3.3-2.8c2.2-2.2,5.2-5.2,11.3-7.8  c7.3-3.1,14.2,0.1,18.1,2.7c-4.8,0.2-7.6,3.6-10,6.5c-2.2,2.7-4,5-7,5c-0.4,0-0.8,0-1.3-0.1C983.4,1479.1,978.6,1481.5,976.2,1487.2  z M975.4,1501.4l0.8,9.8c0,0,0,0,0,0c-1.3,0-2.7-0.4-2.7-4.9C973.4,1502.6,974.3,1501.7,975.4,1501.4z M1022.8,1501.8L1022.8,1501.8  l0-0.4c1.2,0.1,2.3,0.9,2.3,4.9c0,4.6-1.4,4.9-2.7,4.9c0,0,0,0,0,0L1022.8,1501.8z"/><path d="M1004.1,1510.6c0-0.2-0.3-0.4-0.5-0.4c-0.2,0-0.4,0.3-0.4,0.5c0.1,0.4,0.1,1.5-0.3,2c-0.1,0.2-0.3,0.3-0.6,0.3  c-1.1,0-1.7,0.5-2.1,0.8c-0.3,0.3-0.5,0.5-1,0.5c-0.4,0-0.7-0.2-1-0.5c-0.4-0.4-1-0.8-2.1-0.8c-0.3,0-0.5-0.1-0.6-0.3  c-0.4-0.5-0.3-1.6-0.3-2c0-0.2-0.1-0.5-0.4-0.5c-0.3,0-0.5,0.1-0.5,0.4c0,0.2-0.3,1.8,0.5,2.7c0.3,0.4,0.8,0.6,1.3,0.6  c0.8,0,1.1,0.3,1.5,0.6c0.3,0.3,0.7,0.6,1.3,0.7c0.1,0,0.1,0,0.2,0c0,0,0.1,0,0.1,0c0,0,0.1,0,0.1,0c0.1,0,0.1,0,0.2,0  c0.6-0.1,1-0.4,1.3-0.7c0.4-0.3,0.7-0.6,1.5-0.6c0.5,0,1-0.2,1.3-0.6C1004.4,1512.4,1004.1,1510.8,1004.1,1510.6z"/><path d="M1007.4,1514.4c-0.1,0-0.2-0.1-0.3-0.2l-2.3-4.1c-0.1-0.2,0-0.4,0.1-0.5c0.2-0.1,0.4,0,0.5,0.1l2.3,4.1  c0.1,0.2,0,0.4-0.1,0.5C1007.6,1514.4,1007.5,1514.4,1007.4,1514.4z"/><path d="M991,1514.4c-0.1,0-0.1,0-0.2,0c-0.2-0.1-0.2-0.3-0.1-0.5l2.3-4.1c0.1-0.2,0.3-0.2,0.5-0.1c0.2,0.1,0.2,0.3,0.1,0.5  l-2.3,4.1C991.2,1514.4,991.1,1514.4,991,1514.4z"/><path d="M1003.9,1519.9l-3.6-1.8l-0.8,1l-0.8-1l-3.6,1.8c-0.3,0.1-0.4,0.4-0.2,0.7c0.1,0.2,0.3,0.3,0.5,0.3c0.1,0,0.2,0,0.2-0.1  l2.8-1.4l0.7,0.8c0,0,0,0,0,0c0,0,0,0,0,0c0,0,0,0,0,0c0,0,0.1,0,0.1,0.1c0,0,0.1,0,0.1,0c0,0,0.1,0,0.1,0c0,0,0.1,0,0.1,0  c0,0,0.1,0,0.1,0c0,0,0.1,0,0.1-0.1c0,0,0,0,0,0c0,0,0,0,0,0c0,0,0,0,0,0l0.7-0.8l2.8,1.4c0.1,0,0.2,0.1,0.2,0.1  c0.2,0,0.4-0.1,0.5-0.3C1004.3,1520.3,1004.2,1520,1003.9,1519.9z"/><path d="M995.1,1526.6c-0.1,0-0.2,0-0.3-0.1c-0.2-0.2-0.2-0.4-0.1-0.7c1.1-1.5,2.9-2.3,4.9-2.3c1.6,0,3,0.6,4.1,1.6  c0.2,0.2,0.2,0.5,0,0.7c-0.2,0.2-0.5,0.2-0.7,0c-0.9-0.8-2.2-1.3-3.5-1.3c-1.7,0-3.2,0.7-4.1,2  C995.4,1526.5,995.3,1526.6,995.1,1526.6z"/><path d="M997.5,1508.5C997.5,1508.5,997.4,1508.5,997.5,1508.5c-0.3,0-0.5-0.2-0.4-0.5l0.3-6.7c0-0.2,0.2-0.4,0.5-0.4  c0.2,0,0.4,0.2,0.4,0.5l-0.3,6.7C997.9,1508.3,997.7,1508.5,997.5,1508.5z"/><path d="M1001,1508.5c-0.2,0-0.4-0.2-0.4-0.4l-0.3-6.7c0-0.2,0.2-0.5,0.4-0.5c0.2,0,0.5,0.2,0.5,0.4l0.3,6.7  C1001.4,1508.3,1001.2,1508.5,1001,1508.5C1001,1508.5,1001,1508.5,1001,1508.5z"/><g><path d="M1014.5,1498.6l-0.2-0.2c-0.1-0.1-0.1-0.1-0.2-0.1c-0.1-0.1-0.2-0.2-0.4-0.2c-0.3-0.2-0.6-0.3-0.9-0.4   c-0.3-0.1-0.7-0.2-1-0.3c-0.3-0.1-0.7-0.2-1-0.2l0.2,0c-0.5,0.1-1,0.2-1.4,0.3c-0.5,0.1-1,0.3-1.4,0.4c-0.9,0.3-1.8,0.8-2.4,1.4   l0,0c-0.2,0.2-0.5,0.2-0.6,0c-0.2-0.2-0.2-0.4-0.1-0.6c0.2-0.2,0.4-0.5,0.6-0.6c0.1-0.1,0.2-0.2,0.3-0.3c0.1-0.1,0.2-0.2,0.3-0.2   c0.5-0.3,0.9-0.5,1.4-0.8c0.5-0.2,1-0.4,1.5-0.6c0.5-0.2,1-0.3,1.5-0.4l0.1,0l0.1,0c0.4,0,0.8,0.1,1.2,0.1c0.4,0.1,0.8,0.1,1.2,0.2   c0.4,0.1,0.8,0.2,1.2,0.4c0.2,0.1,0.4,0.2,0.6,0.3c0.1,0.1,0.2,0.1,0.3,0.2l0.2,0.2c0.4,0.3,0.5,0.9,0.2,1.3   S1015,1498.9,1014.5,1498.6C1014.6,1498.6,1014.5,1498.6,1014.5,1498.6z"/></g><g><path d="M982.1,1498.1l0.2-0.2c0.1-0.1,0.2-0.2,0.3-0.3c0.2-0.2,0.4-0.3,0.5-0.4c0.4-0.3,0.7-0.4,1.1-0.6c0.4-0.2,0.7-0.3,1.1-0.5   c0.4-0.1,0.7-0.2,1.1-0.4l0.1,0l0.1,0c1.1,0.1,2.1,0.3,3.1,0.6c0.5,0.1,1,0.3,1.5,0.5c0.3,0.1,0.5,0.2,0.7,0.4   c0.2,0.1,0.5,0.3,0.7,0.5c0.2,0.2,0.2,0.5,0,0.6c-0.2,0.2-0.4,0.2-0.6,0.1l0,0c-0.7-0.5-1.7-0.8-2.6-1c-1-0.2-2-0.3-2.9-0.3l0.2,0   c-0.3,0.1-0.6,0.3-1,0.4c-0.3,0.2-0.6,0.3-0.9,0.5c-0.3,0.2-0.6,0.4-0.8,0.6c-0.1,0.1-0.2,0.2-0.3,0.3c0,0.1-0.1,0.1-0.1,0.2   l-0.2,0.2c-0.3,0.4-0.9,0.5-1.3,0.2C981.8,1499.1,981.7,1498.6,982.1,1498.1C982,1498.2,982.1,1498.1,982.1,1498.1z"/></g><path d="M1001.8,1500.1c-0.3,0-0.6,0-0.9-0.1c-0.9-0.3-1.4-0.8-1.4-1.5c0-0.2,0.2-0.4,0.4-0.4s0.4,0.2,0.4,0.4  c0,0.3,0.4,0.6,0.9,0.8c0.7,0.2,1.8,0.1,2.4-0.8c0.1-0.2,0.3-0.2,0.5-0.1c0.2,0.1,0.2,0.3,0.1,0.5  C1003.4,1499.8,1002.5,1500.1,1001.8,1500.1z"/><path d="M996.7,1500.1c-0.8,0-1.7-0.3-2.3-1.2c-0.1-0.2-0.1-0.4,0.1-0.5c0.2-0.1,0.4-0.1,0.5,0.1c0.6,0.9,1.7,1,2.4,0.8  c0.5-0.2,0.9-0.5,0.9-0.8c0-0.2,0.2-0.4,0.4-0.4s0.4,0.2,0.4,0.4c0,0.6-0.6,1.2-1.4,1.5C997.3,1500.1,997,1500.1,996.7,1500.1z"/><text x="950" y="1565" fill="#000000" font-size="5px" font-weight="bold" font-family="'Helvetica Neue', Helvetica, Arial-Unicode, Arial, Sans-serif">Created by Fabián Sanabria</text><text x="950" y="1570" fill="#000000" font-size="5px" font-weight="bold" font-family="'Helvetica Neue', Helvetica, Arial-Unicode, Arial, Sans-serif">from the Noun Project</text></svg>