<svg xmlns="http://www.w3.org/2000/svg" xmlns:xlink="http://www.w3.org/1999/xlink" xmlns:sketch="http://www.bohemiancoding.com/sketch/ns" viewBox="0 0 90 101.25" version="1.1" x="0px" y="0px"><title>Fill 316 + Fill 317 + Fill 318</title><desc>Created with Sketch.</desc><g stroke="none" stroke-width="1" fill="none" fill-rule="evenodd" sketch:type="MSPage"><g sketch:type="MSLayerGroup" fill="#000000"><path d="M86.677438,8.9625 C86.5108264,9.13125 86.3568595,9.13125 86.1895041,8.9625 L81.4187603,4.15125 C81.2833884,4.0155 81.2833884,3.795 81.4559504,3.621 C81.5392562,3.537 81.6344628,3.519 81.6999174,3.519 C81.7653719,3.519 81.8605785,3.537 81.9438843,3.621 L86.7153719,8.43225 C86.7986777,8.51625 86.8165289,8.6115 86.8165289,8.6775 C86.8165289,8.7435 86.7986777,8.84025 86.677438,8.9625 L86.677438,8.9625 Z M75.9146281,18.7545 L71.1803306,13.9815 L73.9495041,11.3295 L76.7179339,13.98 C76.7179339,13.98075 76.7179339,13.70175 76.7179339,13.70175 L76.5795868,13.70175 L77.5145455,14.8545 L78.5796694,16.03275 L75.9146281,18.7545 L75.9146281,18.7545 Z M69.3416529,33.7185 C72.1383471,40.4955 72.2045455,50.27475 64.0004132,57.39375 C58.3467769,62.2995 41.216281,74.38875 37.1967769,77.21175 C33.1809917,74.379 16.0705785,62.2485 10.4199174,57.33375 C2.20983471,50.1945 2.27380165,40.416 5.07123967,33.64575 C7.52504132,27.7035 12.3895041,24.01275 17.7657025,24.01275 C22.6941322,24.01275 27.8970248,27.0015 32.7949587,32.63625 L35.4934711,35.853 C35.7642149,36.17625 36.1569421,36.369 36.5764463,36.38325 C36.9914876,36.402 37.4005785,36.2355 37.6936364,35.93325 L40.8101653,32.71575 C40.8369421,32.688 40.8629752,32.65875 40.8890083,32.6295 C45.5757025,26.96175 50.8782645,24.0885 56.6471901,24.0885 C56.7446281,24.0885 56.8428099,24.096 56.9402479,24.09825 L41.2021488,39.96825 C40.6204959,40.55325 40.6204959,41.5035 41.2021488,42.08925 L41.7287603,42.6195 L39.6238017,44.7405 C39.344876,45.02175 39.1886777,45.4035 39.1886777,45.801 C39.1886777,46.1985 39.344876,46.58025 39.6238017,46.8615 L40.6770248,47.922 L32.7867769,55.878 C32.2058678,56.463 32.2058678,57.41325 32.7867769,57.999 C33.0776033,58.2915 33.457686,58.4385 33.8385124,58.4385 C34.2193388,58.4385 34.6001653,58.2915 34.8902479,57.999 L42.7804959,50.043 L43.3063636,50.57325 C43.5852893,50.85525 43.9631405,51.01275 44.3580992,51.01275 C44.752314,51.01275 45.1309091,50.8545 45.4098347,50.57325 L47.5133058,48.45225 L48.0391736,48.9825 C48.33,49.27575 48.7100826,49.422 49.0909091,49.422 C49.4717355,49.422 49.8518182,49.27575 50.1426446,48.9825 L67.957438,31.02 C68.4795868,31.8675 68.947438,32.76525 69.3416529,33.7185 L69.3416529,33.7185 Z M42.7797521,45.801 L43.8322314,44.7405 L45.4098347,46.33125 L44.3580992,47.39175 L42.7797521,45.801 L42.7797521,45.801 Z M49.0909091,45.801 L44.8839669,41.559 C44.8824793,41.5575 44.8809917,41.55675 44.8802479,41.556 L44.3573554,41.02875 L46.987438,38.37675 L49.6175207,41.02875 C49.9083471,41.32125 50.2884298,41.46825 50.6692562,41.46825 C51.0500826,41.46825 51.4309091,41.32125 51.7209917,41.02875 C52.3019008,40.443 52.3019008,39.49275 51.7209917,38.90775 L49.0909091,36.25575 L51.7209917,33.603 L54.3503306,36.255 C54.641157,36.5475 55.0219835,36.6945 55.4020661,36.6945 C55.7828926,36.6945 56.163719,36.5475 56.4538017,36.255 C57.0354545,35.66925 57.0354545,34.71975 56.4538017,34.13325 L53.8244628,31.482 L56.4545455,28.83 L59.0846281,31.482 C59.3747107,31.77525 59.7555372,31.9215 60.1363636,31.9215 C60.5164463,31.9215 60.8972727,31.77525 61.1880992,31.482 C61.7690083,30.89625 61.7690083,29.94675 61.1880992,29.361 L58.5587603,26.709 L69.0768595,16.1025 L73.8104132,20.8755 L49.0909091,45.801 L49.0909091,45.801 Z M88.818843,6.3105 L84.0473554,1.5 C83.4203306,0.867 82.5865289,0.519 81.6999174,0.519 C80.812562,0.519 79.9787603,0.867 79.3145455,1.53825 C78.0203306,2.84325 78.0203306,4.96725 79.3145455,6.27225 L80.6481818,7.617 L77.4929752,10.8 L73.5671901,6.8415 C72.986281,6.25575 72.0446281,6.25575 71.463719,6.8415 C70.8828099,7.4265 70.8828099,8.3775 71.463719,8.9625 L71.7069421,9.20775 L59.6164463,21.39975 C58.6316529,21.195 57.6364463,21.0885 56.6471901,21.0885 C49.9700826,21.0885 43.912562,24.309 38.6412397,30.6615 L36.708843,32.65725 L35.0494215,30.6795 C29.5527273,24.3555 23.576281,21.01275 17.7657025,21.01275 C11.1659504,21.01275 5.24975207,25.41225 2.32512397,32.49225 C-0.727438017,39.87825 -0.946859504,51.411 8.47636364,59.6055 C14.9801653,65.26125 35.474876,79.66125 36.3443802,80.27175 C36.5995041,80.45025 36.8970248,80.54025 37.1945455,80.54025 C37.4905785,80.54025 37.7873554,80.45175 38.0417355,80.27325 C38.9119835,79.665 59.4334711,65.3145 65.9409917,59.667 C75.3612397,51.4935 75.1395868,39.95925 72.0877686,32.565 C71.5410744,31.2405 70.8790909,29.99475 70.1152066,28.84425 L80.6481818,18.22425 L81.1740496,18.7545 C81.4641322,19.047 81.8449587,19.194 82.2257851,19.194 C82.6066116,19.194 82.9866942,19.047 83.2775207,18.7545 C83.8584298,18.168 83.9707438,17.21925 83.3890909,16.6335 L81.9245455,15.0435 L81.9245455,15.042 L79.7087603,12.921 L82.807438,9.738 L84.1135537,11.0835 C84.7413223,11.71575 85.5602479,12.0645 86.4476033,12.0645 C87.3342149,12.0645 88.1613223,11.71575 88.826281,11.0445 C89.4533058,10.41375 89.7954545,9.57225 89.7954545,8.67825 C89.7954545,7.78425 89.4466116,6.9435 88.818843,6.3105 L88.818843,6.3105 Z" sketch:type="MSShapeGroup"/><path d="M1.14173554,21.8115 C1.3931405,21.97725 1.67652893,22.0575 1.95619835,22.05675 C2.44041322,22.05675 2.91570248,21.819 3.20206612,21.3795 C5.60231405,17.688 9.09446281,15.3075 13.0328926,14.679 C15.2293388,14.32725 17.5708264,14.499 19.9971074,15.1845 C20.782562,15.40725 21.6089256,14.94225 21.8305785,14.14425 C22.0514876,13.347 21.5903306,12.51825 20.7989256,12.2955 C17.9576033,11.493 15.187686,11.298 12.5680165,11.71575 C7.78983471,12.4785 3.57991736,15.32625 0.713305785,19.734 C0.263305785,20.427 0.45446281,21.357 1.14173554,21.8115" sketch:type="MSShapeGroup"/><path d="M79.2304959,33.306 C78.5424793,33.75825 78.3468595,34.6875 78.7953719,35.382 C81.7638843,39.9825 82.7033058,45.186 81.4410744,50.03025 C80.7404132,52.72425 79.3792562,55.326 77.396281,57.7635 C76.874876,58.40475 76.9678512,59.34975 77.6030579,59.8755 C77.8797521,60.1035 78.213719,60.21525 78.5461983,60.21525 C78.9761157,60.21525 79.4030579,60.02775 79.6968595,59.66625 C81.9535537,56.892 83.5080992,53.90625 84.318843,50.7915 C85.7967769,45.11925 84.7204959,39.066 81.2893388,33.7455 C80.8408264,33.051 79.92,32.8545 79.2304959,33.306" sketch:type="MSShapeGroup"/></g></g></svg>